{
    "accessors": [
        {
            "bufferView": 1,
            "byteOffset": 28,
            "componentType": 5123,
            "count": 1197,
            "type": "VEC4",
            "name": "SatCom_vertices#0_COLOR_0"
        },
        {
            "bufferView": 1,
            "byteOffset": 16,
            "componentType": 5120,
            "count": 1197,
            "type": "VEC4",
            "name": "SatCom_vertices#0_NORMAL"
        },
        {
            "bufferView": 1,
            "componentType": 5126,
            "count": 1197,
            "min": [
                -0.6849196553230286,
                -0.3496193289756775,
                -1.4660447835922241
            ],
            "max": [
                0.6849196553230286,
                0.057793863117694855,
                1.4660507440567017
            ],
            "type": "VEC3",
            "name": "SatCom_vertices#0_POSITION"
        },
        {
            "bufferView": 1,
            "byteOffset": 12,
            "componentType": 5120,
            "count": 1197,
            "type": "VEC4",
            "name": "SatCom_vertices#0_TANGENT"
        },
        {
            "bufferView": 1,
            "byteOffset": 20,
            "componentType": 5122,
            "count": 1197,
            "type": "VEC2",
            "name": "SatCom_vertices#0_TEXCOORD_0"
        },
        {
            "bufferView": 1,
            "byteOffset": 24,
            "componentType": 5122,
            "count": 1197,
            "type": "VEC2",
            "name": "SatCom_vertices#0_TEXCOORD_1"
        },
        {
            "bufferView": 0,
            "componentType": 5123,
            "count": 4116,
            "type": "SCALAR",
            "name": "SatCom_indices#0"
        }
    ],
    "asset": {
        "generator": "Khronos glTF Blender I/O v1.7.5",
        "version": "2.0",
        "extensions": {
            "ASOBO_asset_optimized": {
                "BoundingBoxMax": [
                    0.6849196553230286,
                    0.057793863117694855,
                    1.4660507440567017
                ],
                "BoundingBoxMin": [
                    -0.6849196553230286,
                    -0.3496193289756775,
                    -1.4660447835922241
                ],
                "MajorVersion": 4,
                "MinorVersion": 2
            },
            "ASOBO_normal_map_convention": {
                "tangent_space_convention": "DirectX"
            }
        }
    },
    "bufferViews": [
        {
            "buffer": 0,
            "byteLength": 8232,
            "byteOffset": 0,
            "target": 34963,
            "name": "BufferViewIndex"
        },
        {
            "buffer": 0,
            "byteLength": 43092,
            "byteStride": 36,
            "byteOffset": 8232,
            "target": 34962,
            "name": "BufferViewVertexND"
        }
    ],
    "extensionsUsed": [
        "MSFT_texture_dds",
        "ASOBO_asset_optimized",
        "ASOBO_normal_map_convention"
    ],
    "extensionsRequired": [
        "MSFT_texture_dds"
    ],
    "materials": [
        {
            "name": "787_Satcom",
            "doubleSided": true,
            "normalTexture": {
                "index": 0
            },
            "occlusionTexture": {
                "index": 1
            },
            "pbrMetallicRoughness": {
                "baseColorTexture": {
                    "index": 2
                },
                "metallicRoughnessTexture": {
                    "index": 3
                }
            }
        }
    ],
    "meshes": [
        {
            "primitives": [
                {
                    "attributes": {
                        "COLOR_0": 0,
                        "NORMAL": 1,
                        "POSITION": 2,
                        "TANGENT": 3,
                        "TEXCOORD_0": 4,
                        "TEXCOORD_1": 5
                    },
                    "indices": 6,
                    "material": 0,
                    "mode": 4,
                    "extras": {
                        "ASOBO_primitive": {
                            "PrimitiveCount": 1372,
                            "VertexType": "VTX",
                            "VertexVersion": 2
                        }
                    }
                }
            ],
            "name": "SatCom"
        }
    ],
    "nodes": [
        {
            "translation": [
                0,
                3.9740898609161377,
                13.029387512207031
            ],
            "mesh": 0,
            "name": "SatCom"
        }
    ],
    "scene": 0,
    "scenes": [
        {
            "name": "Scene",
            "nodes": [
                0
            ]
        }
    ],
    "textures": [
        {
            "extensions": {
                "MSFT_texture_dds": {
                    "source": 0
                }
            }
        },
        {
            "extensions": {
                "MSFT_texture_dds": {
                    "source": 1
                }
            }
        },
        {
            "extensions": {
                "MSFT_texture_dds": {
                    "source": 2
                }
            }
        },
        {
            "extensions": {
                "MSFT_texture_dds": {
                    "source": 1
                }
            }
        }
    ],
    "buffers": [
        {
            "byteLength": 51324,
            "uri": "satcom.bin"
        }
    ],
    "images": [
        {
            "extras": "ASOBO_image_converted_meta",
            "uri": "787_Satcom_NORM.png.DDS"
        },
        {
            "extras": "ASOBO_image_converted_meta",
            "uri": "787_Satcom_COMP.png.DDS"
        },
        {
            "extras": "ASOBO_image_converted_meta",
            "uri": "787_Satcom_ALBD.png.DDS"
        }
    ]
}
