{
    "accessors": [
        {
            "bufferView": 1,
            "byteOffset": 28,
            "componentType": 5123,
            "count": 228,
            "type": "VEC4",
            "name": "node339.005_vertices#0_COLOR_0"
        },
        {
            "bufferView": 1,
            "byteOffset": 16,
            "componentType": 5120,
            "count": 228,
            "type": "VEC4",
            "name": "node339.005_vertices#0_NORMAL"
        },
        {
            "bufferView": 1,
            "componentType": 5126,
            "count": 228,
            "min": [
                -2.833381175994873,
                -0.032592788338661194,
                -16.1800479888916
            ],
            "max": [
                -2.743051052093506,
                0.2760574221611023,
                -13.43792724609375
            ],
            "type": "VEC3",
            "name": "node339.005_vertices#0_POSITION"
        },
        {
            "bufferView": 1,
            "byteOffset": 12,
            "componentType": 5120,
            "count": 228,
            "type": "VEC4",
            "name": "node339.005_vertices#0_TANGENT"
        },
        {
            "bufferView": 1,
            "byteOffset": 20,
            "componentType": 5122,
            "count": 228,
            "type": "VEC2",
            "name": "node339.005_vertices#0_TEXCOORD_0"
        },
        {
            "bufferView": 1,
            "byteOffset": 24,
            "componentType": 5122,
            "count": 228,
            "type": "VEC2",
            "name": "node339.005_vertices#0_TEXCOORD_1"
        },
        {
            "bufferView": 1,
            "componentType": 5122,
            "count": 228,
            "type": "VEC2",
            "name": "node339.005_vertices#0_TEXCOORD_2"
        },
        {
            "bufferView": 0,
            "componentType": 5123,
            "count": 570,
            "type": "SCALAR",
            "name": "node339.005_indices#0"
        }
    ],
    "asset": {
        "generator": "Khronos glTF Blender I/O v1.7.5",
        "version": "2.0",
        "extensions": {
            "ASOBO_asset_optimized": {
                "BoundingBoxMax": [
                    0,
                    0.2760574221611023,
                    0
                ],
                "BoundingBoxMin": [
                    -2.833381175994873,
                    -0.032592788338661194,
                    -16.1800479888916
                ],
                "MajorVersion": 4,
                "MinorVersion": 2
            },
            "ASOBO_normal_map_convention": {
                "tangent_space_convention": "DirectX"
            }
        }
    },
    "bufferViews": [
        {
            "buffer": 0,
            "byteLength": 1140,
            "byteOffset": 0,
            "target": 34963,
            "name": "BufferViewIndex"
        },
        {
            "buffer": 0,
            "byteLength": 8208,
            "byteStride": 36,
            "byteOffset": 1140,
            "target": 34962,
            "name": "BufferViewVertexND"
        }
    ],
    "extensionsUsed": [
        "MSFT_texture_dds",
        "ASOBO_asset_optimized",
        "ASOBO_normal_map_convention"
    ],
    "extensionsRequired": [
        "MSFT_texture_dds"
    ],
    "materials": [
        {
            "name": "RIGHT",
            "normalTexture": {
                "index": 2
            },
            "occlusionTexture": {
                "index": 1
            },
            "pbrMetallicRoughness": {
                "baseColorTexture": {
                    "index": 0
                },
                "metallicRoughnessTexture": {
                    "index": 1
                }
            }
        }
    ],
    "meshes": [
        {
            "primitives": [
                {
                    "attributes": {
                        "COLOR_0": 0,
                        "NORMAL": 1,
                        "POSITION": 2,
                        "TANGENT": 3,
                        "TEXCOORD_0": 4,
                        "TEXCOORD_1": 5,
                        "TEXCOORD_2": 6
                    },
                    "indices": 7,
                    "material": 0,
                    "mode": 4,
                    "extras": {
                        "ASOBO_primitive": {
                            "PrimitiveCount": 190,
                            "VertexType": "VTX",
                            "VertexVersion": 2
                        }
                    }
                }
            ],
            "name": "node339.005"
        }
    ],
    "nodes": [
        {
            "mesh": 0,
            "name": "node339.005"
        }
    ],
    "scene": 0,
    "scenes": [
        {
            "name": "Scene",
            "nodes": [
                0
            ]
        }
    ],
    "textures": [
        {
            "extensions": {
                "MSFT_texture_dds": {
                    "source": 0
                }
            }
        },
        {
            "extensions": {
                "MSFT_texture_dds": {
                    "source": 1
                }
            }
        },
        {
            "extensions": {
                "MSFT_texture_dds": {
                    "source": 2
                }
            }
        }
    ],
    "buffers": [
        {
            "byteLength": 9348,
            "uri": "aft-hinge.bin"
        }
    ],
    "images": [
        {
            "uri": "787_9_RIGHT_ALBD.PNG.DDS",
            "extras": "ASOBO_image_converted_meta"
        },
        {
            "uri": "787_9_RIGHT_COMP.PNG.DDS",
            "extras": "ASOBO_image_converted_meta"
        },
        {
            "uri": "787_9_RIGHT_NORM.PNG.DDS",
            "extras": "ASOBO_image_converted_meta"
        }
    ]
}
