{
    "accessors": [
        {
            "bufferView": 1,
            "byteOffset": 28,
            "componentType": 5123,
            "count": 9258,
            "type": "VEC4",
            "name": "x0_Body_front_center.020_vertices#0_COLOR_0"
        },
        {
            "bufferView": 1,
            "byteOffset": 16,
            "componentType": 5120,
            "count": 9258,
            "type": "VEC4",
            "name": "x0_Body_front_center.020_vertices#0_NORMAL"
        },
        {
            "bufferView": 1,
            "componentType": 5126,
            "count": 9258,
            "min": [
                -3.255725860595703,
                -2.5237722396850586,
                -9.367598533630371
            ],
            "max": [
                3.255725860595703,
                0.8606578707695007,
                9.45352840423584
            ],
            "type": "VEC3",
            "name": "x0_Body_front_center.020_vertices#0_POSITION"
        },
        {
            "bufferView": 1,
            "byteOffset": 20,
            "componentType": 5122,
            "count": 9258,
            "type": "VEC2",
            "name": "x0_Body_front_center.020_vertices#0_TEXCOORD_0"
        },
        {
            "bufferView": 1,
            "byteOffset": 24,
            "componentType": 5122,
            "count": 9258,
            "type": "VEC2",
            "name": "x0_Body_front_center.020_vertices#0_TEXCOORD_1"
        },
        {
            "bufferView": 0,
            "componentType": 5123,
            "count": 31488,
            "type": "SCALAR",
            "name": "x0_Body_front_center.020_indices#0"
        }
    ],
    "asset": {
        "generator": "Khronos glTF Blender I/O v1.7.5",
        "version": "2.0",
        "extensions": {
            "ASOBO_asset_optimized": {
                "BoundingBoxMax": [
                    3.255725860595703,
                    0.8606578707695007,
                    9.45352840423584
                ],
                "BoundingBoxMin": [
                    -3.255725860595703,
                    -2.5237722396850586,
                    -9.367598533630371
                ],
                "MajorVersion": 4,
                "MinorVersion": 2
            },
            "ASOBO_normal_map_convention": {
                "tangent_space_convention": "DirectX"
            }
        }
    },
    "bufferViews": [
        {
            "buffer": 0,
            "byteLength": 62976,
            "byteOffset": 0,
            "target": 34963,
            "name": "BufferViewIndex"
        },
        {
            "buffer": 0,
            "byteLength": 333288,
            "byteStride": 36,
            "byteOffset": 62976,
            "target": 34962,
            "name": "BufferViewVertexND"
        }
    ],
    "textures": [
        {
            "extensions": {
                "MSFT_texture_dds": {
                    "source": 0
                }
            }
        },
        {
            "extensions": {
                "MSFT_texture_dds": {
                    "source": 1
                }
            }
        },
        {
            "extensions": {
                "MSFT_texture_dds": {
                    "source": 2
                }
            }
        }
    ],
    "extensionsUsed": [
        "ASOBO_normal_map_convention",
        "ASOBO_material_draw_order",
        "ASOBO_material_blend_gbuffer",
        "ASOBO_material_detail_map",
        "ASOBO_material_windshield_v2",
        "ASOBO_tags",
        "ASOBO_material_invisible",
        "MSFT_texture_dds",
        "ASOBO_asset_optimized"
    ],
    "materials": [
        {
            "name": "M_Belly",
            "normalTexture": {
                "index": 2
            },
            "occlusionTexture": {
                "index": 1
            },
            "pbrMetallicRoughness": {
                "baseColorTexture": {
                    "index": 0
                },
                "metallicRoughnessTexture": {
                    "index": 1
                }
            }
        }
    ],
    "meshes": [
        {
            "primitives": [
                {
                    "attributes": {
                        "COLOR_0": 0,
                        "NORMAL": 1,
                        "POSITION": 2,
                        "TEXCOORD_0": 3,
                        "TEXCOORD_1": 4
                    },
                    "indices": 5,
                    "material": 0,
                    "mode": 4,
                    "extras": {
                        "ASOBO_primitive": {
                            "PrimitiveCount": 10496,
                            "VertexType": "VTX",
                            "VertexVersion": 2
                        }
                    }
                }
            ],
            "name": "x0_Body_front_center.020"
        }
    ],
    "nodes": [
        {
            "mesh": 0,
            "name": "Body_front_center.010"
        }
    ],
    "scene": 0,
    "scenes": [
        {
            "name": "Scene",
            "nodes": [
                0
            ]
        }
    ],
    "buffers": [
        {
            "byteLength": 396264,
            "uri": "belly.bin"
        }
    ],
    "images": [
        {
            "uri": "787_9_M_BELLY_ALBD.PNG.DDS",
            "extras": "ASOBO_image_converted_meta"
        },
        {
            "uri": "787_9_M_BELLY_COMP.PNG.DDS",
            "extras": "ASOBO_image_converted_meta"
        },
        {
            "uri": "787_9_M_BELLY_NORM.PNG.DDS",
            "extras": "ASOBO_image_converted_meta"
        }
    ]
}
