{
    "accessors": [
        {
            "bufferView": 1,
            "byteOffset": 28,
            "componentType": 5123,
            "count": 819,
            "type": "VEC4",
            "name": "Rudder_Decal_1_vertices#0_COLOR_0"
        },
        {
            "bufferView": 1,
            "byteOffset": 16,
            "componentType": 5120,
            "count": 819,
            "type": "VEC4",
            "name": "Rudder_Decal_1_vertices#0_NORMAL"
        },
        {
            "bufferView": 1,
            "componentType": 5126,
            "count": 819,
            "min": [
                -0.5836732983589172,
                2.5663259029388428,
                -33.62798309326172
            ],
            "max": [
                0.5836712718009949,
                12.524478912353516,
                -20.403270721435547
            ],
            "type": "VEC3",
            "name": "Rudder_Decal_1_vertices#0_POSITION"
        },
        {
            "bufferView": 1,
            "byteOffset": 12,
            "componentType": 5120,
            "count": 819,
            "type": "VEC4",
            "name": "Rudder_Decal_1_vertices#0_TANGENT"
        },
        {
            "bufferView": 1,
            "byteOffset": 20,
            "componentType": 5122,
            "count": 819,
            "type": "VEC2",
            "name": "Rudder_Decal_1_vertices#0_TEXCOORD_0"
        },
        {
            "bufferView": 1,
            "byteOffset": 24,
            "componentType": 5122,
            "count": 819,
            "type": "VEC2",
            "name": "Rudder_Decal_1_vertices#0_TEXCOORD_1"
        },
        {
            "bufferView": 0,
            "componentType": 5123,
            "count": 3618,
            "type": "SCALAR",
            "name": "Rudder_Decal_1_indices#0"
        },
        {
            "bufferView": 1,
            "byteOffset": 29512,
            "componentType": 5123,
            "count": 318,
            "type": "VEC4",
            "name": "Rudder_Decal_2_vertices#0_COLOR_0"
        },
        {
            "bufferView": 1,
            "byteOffset": 29500,
            "componentType": 5120,
            "count": 318,
            "type": "VEC4",
            "name": "Rudder_Decal_2_vertices#0_NORMAL"
        },
        {
            "bufferView": 1,
            "byteOffset": 29484,
            "componentType": 5126,
            "count": 318,
            "min": [
                -6.89578104019165,
                -2.440187931060791,
                -0.32870376110076904
            ],
            "max": [
                4.101102352142334,
                0.566577672958374,
                0.32870423793792725
            ],
            "type": "VEC3",
            "name": "Rudder_Decal_2_vertices#0_POSITION"
        },
        {
            "bufferView": 1,
            "byteOffset": 29496,
            "componentType": 5120,
            "count": 318,
            "type": "VEC4",
            "name": "Rudder_Decal_2_vertices#0_TANGENT"
        },
        {
            "bufferView": 1,
            "byteOffset": 29504,
            "componentType": 5122,
            "count": 318,
            "type": "VEC2",
            "name": "Rudder_Decal_2_vertices#0_TEXCOORD_0"
        },
        {
            "bufferView": 1,
            "byteOffset": 29508,
            "componentType": 5122,
            "count": 318,
            "type": "VEC2",
            "name": "Rudder_Decal_2_vertices#0_TEXCOORD_1"
        },
        {
            "bufferView": 0,
            "byteOffset": 7236,
            "componentType": 5123,
            "count": 1584,
            "type": "SCALAR",
            "name": "Rudder_Decal_2_indices#0"
        }
    ],
    "asset": {
        "generator": "Khronos glTF Blender I/O v1.7.5",
        "version": "2.0",
        "extensions": {
            "ASOBO_asset_optimized": {
                "BoundingBoxMax": [
                    4.101102352142334,
                    12.524478912353516,
                    0.32870423793792725
                ],
                "BoundingBoxMin": [
                    -6.89578104019165,
                    -2.440187931060791,
                    -33.62798309326172
                ],
                "MajorVersion": 4,
                "MinorVersion": 2
            },
            "ASOBO_normal_map_convention": {
                "tangent_space_convention": "DirectX"
            }
        }
    },
    "bufferViews": [
        {
            "buffer": 0,
            "byteLength": 10404,
            "byteOffset": 0,
            "target": 34963,
            "name": "BufferViewIndex"
        },
        {
            "buffer": 0,
            "byteLength": 40932,
            "byteStride": 36,
            "byteOffset": 10404,
            "target": 34962,
            "name": "BufferViewVertexND"
        }
    ],
    "extensionsUsed": [
        "ASOBO_asset_optimized",
        "ASOBO_normal_map_convention"
    ],
    "materials": [
        {
            "name": "Tail_Decals",
            "doubleSided": true,
            "pbrMetallicRoughness": {
                "baseColorFactor": [
                    0.800000011920929,
                    0.800000011920929,
                    0.800000011920929,
                    1
                ],
                "metallicFactor": 0,
                "roughnessFactor": 0.5
            }
        }
    ],
    "meshes": [
        {
            "primitives": [
                {
                    "attributes": {
                        "COLOR_0": 0,
                        "NORMAL": 1,
                        "POSITION": 2,
                        "TANGENT": 3,
                        "TEXCOORD_0": 4,
                        "TEXCOORD_1": 5
                    },
                    "indices": 6,
                    "material": 0,
                    "mode": 4,
                    "extras": {
                        "ASOBO_primitive": {
                            "PrimitiveCount": 1206,
                            "VertexType": "VTX",
                            "VertexVersion": 2
                        }
                    }
                }
            ],
            "name": "Rudder_Decal_1"
        },
        {
            "primitives": [
                {
                    "attributes": {
                        "COLOR_0": 7,
                        "NORMAL": 8,
                        "POSITION": 9,
                        "TANGENT": 10,
                        "TEXCOORD_0": 11,
                        "TEXCOORD_1": 12
                    },
                    "indices": 13,
                    "material": 0,
                    "mode": 4,
                    "extras": {
                        "ASOBO_primitive": {
                            "PrimitiveCount": 528,
                            "VertexType": "VTX",
                            "VertexVersion": 2
                        }
                    }
                }
            ],
            "name": "Rudder_Decal_2"
        }
    ],
    "nodes": [
        {
            "mesh": 0,
            "name": "Rudder_Decal_1"
        },
        {
            "translation": [
                0,
                9.241048812866211,
                -30.8690128326416
            ],
            "rotation": [
                0.351553738117218,
                0.6135228872299194,
                0.351553350687027,
                0.6135225296020508
            ],
            "mesh": 1,
            "name": "Rudder_Decal_2"
        }
    ],
    "scene": 0,
    "scenes": [
        {
            "name": "Scene",
            "nodes": [
                0,
                1
            ]
        }
    ],
    "buffers": [
        {
            "byteLength": 51336,
            "uri": "decals.bin"
        }
    ]
}
